<mxfile host="app.diagrams.net" modified="2020-10-03T20:26:18.766Z" agent="5.0 (Windows NT 10.0; Win64; x64) AppleWebKit/537.36 (KHTML, like Gecko) Chrome/85.0.4183.121 Safari/537.36" etag="C6hnbML-AZCO3A7jeP_6" version="13.7.7" type="github">
  <diagram id="JOQu4P1OqWZNp6U1JNzT" name="Page-1">
    <mxGraphModel dx="794" dy="522" grid="1" gridSize="10" guides="1" tooltips="1" connect="1" arrows="1" fold="1" page="1" pageScale="1" pageWidth="850" pageHeight="1100" math="0" shadow="0">
      <root>
        <mxCell id="0" />
        <mxCell id="1" parent="0" />
        <mxCell id="lzaTN6IqFRd3hGhSZC3j-3" value="" style="edgeStyle=orthogonalEdgeStyle;rounded=0;orthogonalLoop=1;jettySize=auto;html=1;" edge="1" parent="1" source="lzaTN6IqFRd3hGhSZC3j-1" target="lzaTN6IqFRd3hGhSZC3j-2">
          <mxGeometry relative="1" as="geometry" />
        </mxCell>
        <mxCell id="lzaTN6IqFRd3hGhSZC3j-12" style="edgeStyle=orthogonalEdgeStyle;rounded=0;orthogonalLoop=1;jettySize=auto;html=1;entryX=1;entryY=0.5;entryDx=0;entryDy=0;" edge="1" parent="1" source="lzaTN6IqFRd3hGhSZC3j-1" target="lzaTN6IqFRd3hGhSZC3j-8">
          <mxGeometry relative="1" as="geometry" />
        </mxCell>
        <mxCell id="lzaTN6IqFRd3hGhSZC3j-1" value="Controller&lt;br&gt;(Yogi Adityanath)" style="whiteSpace=wrap;html=1;aspect=fixed;fillColor=#fff2cc;strokeColor=#d6b656;" vertex="1" parent="1">
          <mxGeometry x="305" y="190" width="120" height="120" as="geometry" />
        </mxCell>
        <mxCell id="lzaTN6IqFRd3hGhSZC3j-11" value="" style="edgeStyle=orthogonalEdgeStyle;rounded=0;orthogonalLoop=1;jettySize=auto;html=1;" edge="1" parent="1" source="lzaTN6IqFRd3hGhSZC3j-2" target="lzaTN6IqFRd3hGhSZC3j-6">
          <mxGeometry relative="1" as="geometry" />
        </mxCell>
        <mxCell id="lzaTN6IqFRd3hGhSZC3j-2" value="Service &lt;br&gt;(Police)" style="whiteSpace=wrap;html=1;aspect=fixed;fillColor=#fff2cc;strokeColor=#d6b656;" vertex="1" parent="1">
          <mxGeometry x="570" y="190" width="120" height="120" as="geometry" />
        </mxCell>
        <mxCell id="lzaTN6IqFRd3hGhSZC3j-4" value="Model(Constitution,&lt;br&gt;fundamental rights)" style="whiteSpace=wrap;html=1;aspect=fixed;fillColor=#fff2cc;strokeColor=#d6b656;" vertex="1" parent="1">
          <mxGeometry x="570" y="30" width="120" height="120" as="geometry" />
        </mxCell>
        <mxCell id="lzaTN6IqFRd3hGhSZC3j-6" value="Model&lt;br&gt;(Castism.Jungleraaz..,&lt;br&gt;mafia,IT cell)" style="rounded=0;whiteSpace=wrap;html=1;fillColor=#fff2cc;strokeColor=#d6b656;" vertex="1" parent="1">
          <mxGeometry x="570" y="360" width="120" height="100" as="geometry" />
        </mxCell>
        <mxCell id="lzaTN6IqFRd3hGhSZC3j-8" value="View&lt;br&gt;(Media)" style="rounded=0;whiteSpace=wrap;html=1;fillColor=#fff2cc;strokeColor=#d6b656;" vertex="1" parent="1">
          <mxGeometry x="40" y="195" width="120" height="110" as="geometry" />
        </mxCell>
        <mxCell id="lzaTN6IqFRd3hGhSZC3j-15" style="edgeStyle=orthogonalEdgeStyle;rounded=0;orthogonalLoop=1;jettySize=auto;html=1;entryX=0.308;entryY=0.008;entryDx=0;entryDy=0;entryPerimeter=0;" edge="1" parent="1" source="lzaTN6IqFRd3hGhSZC3j-13" target="lzaTN6IqFRd3hGhSZC3j-1">
          <mxGeometry relative="1" as="geometry" />
        </mxCell>
        <mxCell id="lzaTN6IqFRd3hGhSZC3j-13" value="User&lt;br&gt;(victim)" style="ellipse;whiteSpace=wrap;html=1;aspect=fixed;" vertex="1" parent="1">
          <mxGeometry x="305" y="50" width="80" height="80" as="geometry" />
        </mxCell>
      </root>
    </mxGraphModel>
  </diagram>
</mxfile>
